<svg width="36" height="36" viewBox="0 0 36 36" fill="none" xmlns="http://www.w3.org/2000/svg">
<path d="M35.5 18C35.5 27.665 27.665 35.5 18 35.5C8.33502 35.5 0.5 27.665 0.5 18C0.5 8.33502 8.33502 0.5 18 0.5C27.665 0.5 35.5 8.33502 35.5 18Z" fill="#EDF0F4" stroke="#D6D6D6"/>
<path d="M18.5605 4.5V14.4787L26.9947 18.2475L18.5605 4.5Z" fill="black" fill-opacity="0.602"/>
<path d="M18.5602 4.5L10.125 18.2475L18.5602 14.4787V4.5Z" fill="#717171"/>
<path d="M18.5605 24.7144V31.4947L27.0003 19.8184L18.5605 24.7144Z" fill="black" fill-opacity="0.602"/>
<path d="M18.5602 31.4947V24.7132L10.125 19.8184L18.5602 31.4947Z" fill="#717171"/>
<path d="M18.5605 23.1451L26.9947 18.2479L18.5605 14.4814V23.1451Z" fill="black" fill-opacity="0.2"/>
<path d="M10.125 18.2479L18.5602 23.1451V14.4814L10.125 18.2479Z" fill="black" fill-opacity="0.602"/>
</svg>
