<svg width="24" height="24" viewBox="0 0 24 24" fill="none" xmlns="http://www.w3.org/2000/svg">
<path fill-rule="evenodd" clip-rule="evenodd" d="M12.564 3.86169C12.2582 3.86534 11.9576 3.94156 11.6871 4.08407L1.57219 9.42182C1.30103 9.56506 1.06201 9.76222 0.869812 10.0012C0.549602 10.3999 0.375046 10.896 0.375 11.4074V12.0164C0.37498 12.2856 0.412594 12.5534 0.48675 12.8122C0.596266 13.1938 0.783285 13.5487 1.03612 13.8547C1.29238 14.1648 1.61062 14.418 1.97044 14.5979L8.25562 17.7404C8.19845 18.1212 8.24703 18.5103 8.39606 18.8653C8.47441 19.0511 8.57959 19.2244 8.70825 19.3798C8.92248 19.639 9.19584 19.8429 9.50531 19.9745C9.76197 20.0834 10.038 20.139 10.3168 20.1382C10.4579 20.1381 10.5986 20.124 10.7368 20.096C11.0035 20.0416 11.2568 19.935 11.4821 19.7823C11.8171 19.5559 12.0794 19.2374 12.2374 18.8653C12.3181 18.6746 12.3697 18.4729 12.3904 18.2669C12.4097 18.0762 12.403 17.8837 12.3705 17.6947L20.0917 13.6196C20.2331 13.7562 20.3929 13.8722 20.5665 13.9644C20.9307 14.1569 21.3438 14.2371 21.7536 14.1946C21.9594 14.1737 22.161 14.1221 22.3517 14.0416C22.5376 13.9633 22.711 13.8581 22.8664 13.7294C23.1256 13.5152 23.3296 13.2419 23.4611 12.9324C23.5419 12.7418 23.5936 12.5401 23.6143 12.3341C23.6428 12.0536 23.6146 11.7703 23.5312 11.501C23.4508 11.2431 23.321 11.0033 23.1489 10.7951C22.9347 10.5359 22.6613 10.3319 22.3519 10.2003C22.0953 10.0914 21.8193 10.0357 21.5406 10.0364C21.3994 10.0365 21.2587 10.0507 21.1204 10.0788C20.7874 10.1469 20.4764 10.2958 20.2146 10.5125C19.9554 10.7267 19.7514 11.0001 19.6198 11.3096C19.5109 11.5662 19.4552 11.8421 19.4559 12.1209C19.4557 12.2439 19.4665 12.3667 19.4882 12.4878L11.7711 16.5607C11.6295 16.4229 11.4691 16.3057 11.2948 16.2127C10.9937 16.0524 10.6577 15.9688 10.3166 15.9693C10.1739 15.9694 10.0316 15.9839 9.89175 16.0126C9.62205 16.0682 9.36621 16.1772 9.13931 16.3333C9.02773 16.4096 8.92391 16.4967 8.82937 16.5933L2.634 13.4956C2.41533 13.3862 2.22175 13.2325 2.06548 13.0445C1.90922 12.8564 1.79366 12.6379 1.72612 12.4029C1.68067 12.2446 1.65763 12.0807 1.65769 11.9159C1.65772 11.8154 1.67039 11.7153 1.69537 11.618C1.743 11.435 1.83525 11.2667 1.96387 11.1281C2.05759 11.0268 2.16833 10.9427 2.29106 10.8796C2.41442 10.8164 2.54796 10.7753 2.68556 10.7583C2.87785 10.7351 3.07288 10.7611 3.25237 10.8339L9.43219 13.9237C9.70581 14.0604 10.0081 14.1299 10.3139 14.1266C10.6197 14.1232 10.9204 14.047 11.1909 13.9044L21.0334 8.70969C21.0767 8.68657 21.1146 8.65926 21.1468 8.62776C21.2094 8.56683 21.2538 8.48961 21.2749 8.40482C21.3064 8.27971 21.2874 8.14723 21.222 8.03601C21.1994 7.99816 21.1715 7.9637 21.1393 7.93363C21.1049 7.90165 21.0661 7.87481 21.024 7.85394L13.4458 4.06494C13.1721 3.92847 12.87 3.85894 12.5642 3.86207L12.564 3.86169ZM21.5406 11.3193C21.6477 11.3194 21.7538 11.3408 21.8526 11.3823C21.9959 11.4428 22.1186 11.5438 22.2054 11.6729C22.2653 11.7614 22.3068 11.8609 22.3275 11.9656C22.3482 12.0703 22.3477 12.1782 22.326 12.2827C22.3053 12.3853 22.2643 12.4828 22.2054 12.5694C22.1183 12.6982 21.9957 12.7991 21.8526 12.8598C21.7539 12.9018 21.6478 12.9233 21.5406 12.9228C21.4334 12.9228 21.3273 12.9013 21.2286 12.8598C21.0852 12.7993 20.9626 12.6983 20.8757 12.5692C20.7863 12.4368 20.7385 12.2808 20.7385 12.1211C20.7385 11.9614 20.7863 11.8053 20.8757 11.6729C20.9932 11.4993 21.1737 11.3782 21.3789 11.3354C21.4313 11.3248 21.4852 11.3194 21.5406 11.3193ZM10.317 17.2524C10.4242 17.2524 10.5302 17.2739 10.629 17.3154C10.7724 17.3759 10.895 17.4769 10.9819 17.606C11.0567 17.7165 11.1026 17.8439 11.1155 17.9767C11.1284 18.1094 11.1079 18.2433 11.0557 18.3661C10.9952 18.5094 10.8942 18.632 10.7651 18.7188C10.611 18.8231 10.4253 18.8704 10.24 18.8526C10.0548 18.8347 9.88155 18.7528 9.75019 18.6209C9.67706 18.5478 9.61869 18.4613 9.57825 18.3661C9.53623 18.2675 9.51479 18.1613 9.51525 18.0541C9.51528 17.9469 9.5367 17.8408 9.57825 17.7419C9.61869 17.6468 9.67706 17.5603 9.75019 17.4871C9.82333 17.4141 9.90984 17.3558 10.005 17.3154C10.1036 17.2734 10.2098 17.2519 10.317 17.2524Z" fill="white"/>
</svg>
