<svg width="50" height="50" viewBox="0 0 50 50" fill="none" xmlns="http://www.w3.org/2000/svg">
<path d="M45 0H5C3.67392 0 2.40215 0.526784 1.46447 1.46447C0.526784 2.40215 0 3.67392 0 5V35C0 36.3261 0.526784 37.5979 1.46447 38.5355C2.40215 39.4732 3.67392 40 5 40H15V47.5C15 48.875 16.125 50 17.5 50H18.75C19.375 50 20 49.75 20.5 49.275L29.75 40H45C47.775 40 50 37.775 50 35V5C50 3.67392 49.4732 2.40215 48.5355 1.46447C47.5979 0.526784 46.3261 0 45 0ZM21.175 30L12.5 21.25L16 17.725L21.175 22.925L34 10L37.5 13.525L21.175 30Z" fill="#FCE593"/>
</svg>
