<svg width="22" height="20" viewBox="0 0 22 20" fill="none" xmlns="http://www.w3.org/2000/svg">
<path d="M20.24 3.63636H2.64C2.40661 3.63636 2.18278 3.54058 2.01775 3.3701C1.85271 3.19961 1.76 2.96838 1.76 2.72727C1.76 2.48617 1.85271 2.25494 2.01775 2.08445C2.18278 1.91396 2.40661 1.81818 2.64 1.81818H17.6C17.8334 1.81818 18.0572 1.7224 18.2223 1.55192C18.3873 1.38143 18.48 1.1502 18.48 0.909091C18.48 0.667985 18.3873 0.436754 18.2223 0.266267C18.0572 0.0957791 17.8334 0 17.6 0H2.64C1.93983 0 1.26833 0.287337 0.773238 0.7988C0.278142 1.31026 0 2.00396 0 2.72727V17.2727C0 17.996 0.278142 18.6897 0.773238 19.2012C1.26833 19.7127 1.93983 20 2.64 20H20.24C20.7068 20 21.1544 19.8084 21.4845 19.4675C21.8146 19.1265 22 18.664 22 18.1818V5.45455C22 4.97233 21.8146 4.50987 21.4845 4.1689C21.1544 3.82792 20.7068 3.63636 20.24 3.63636ZM20.24 18.1818H2.64C2.40661 18.1818 2.18278 18.086 2.01775 17.9156C1.85271 17.7451 1.76 17.5138 1.76 17.2727V5.29886C2.04254 5.40243 2.3402 5.45509 2.64 5.45455H20.24V18.1818ZM14.96 11.3636C14.96 11.0939 15.0374 10.8303 15.1825 10.606C15.3275 10.3818 15.5337 10.207 15.7749 10.1038C16.0161 10.0006 16.2815 9.97359 16.5375 10.0262C16.7936 10.0788 17.0288 10.2087 17.2134 10.3994C17.398 10.5901 17.5237 10.8331 17.5746 11.0976C17.6256 11.3621 17.5994 11.6363 17.4995 11.8855C17.3996 12.1346 17.2304 12.3476 17.0134 12.4975C16.7963 12.6473 16.5411 12.7273 16.28 12.7273C15.9299 12.7273 15.5942 12.5836 15.3466 12.3279C15.0991 12.0721 14.96 11.7253 14.96 11.3636Z" fill="#FCE593"/>
</svg>
