<svg width="24" height="24" viewBox="0 0 24 24" fill="none" xmlns="http://www.w3.org/2000/svg">
<circle cx="12" cy="12" r="12" fill="url(#paint0_linear_2044_455)"/>
<path d="M17.3893 9.53756L12.5073 18.0634C12.4174 18.2195 12.2765 18.3319 12.1134 18.3776C11.9503 18.4233 11.7774 18.3988 11.6303 18.309C11.5327 18.2491 11.4504 18.1634 11.3906 18.0597L6.6043 9.53388C6.4702 9.29494 6.39943 9.01977 6.3999 8.73921C6.40595 8.325 6.56158 7.93033 6.83266 7.64181C7.10373 7.35329 7.4681 7.19448 7.84582 7.20022H16.1607C16.9542 7.20022 17.5999 7.88681 17.5999 8.73552C17.5999 9.01802 17.5271 9.2956 17.3888 9.53756M7.77918 9.25261L11.3408 15.2741V8.64525H8.15158C7.7831 8.64525 7.6179 8.913 7.77974 9.25261M12.6585 15.2741L16.2201 9.25261C16.3841 8.913 16.2161 8.64525 15.8477 8.64525H12.6585V15.2741Z" fill="black"/>
<defs>
<linearGradient id="paint0_linear_2044_455" x1="24" y1="12" x2="0" y2="12" gradientUnits="userSpaceOnUse">
<stop stop-color="#699DEC"/>
<stop offset="1" stop-color="#6C69FF"/>
</linearGradient>
</defs>
</svg>
