<svg width="317" height="65" viewBox="0 0 317 65" fill="none" xmlns="http://www.w3.org/2000/svg">
<path d="M46.6608 18.2699C41.2586 12.8741 36.6192 6.73112 32.9036 0C29.1999 6.70961 24.5782 12.8348 19.1981 18.2182L27.3224 28.3837C28.5925 26.7062 30.6197 25.6204 32.9036 25.6204C35.2147 25.6204 37.2629 26.7322 38.5298 28.4439L46.6608 18.2699Z" fill="#FCE593"/>
<path d="M49.3766 20.8609L38.9129 29.0197C39.5203 30.0407 39.8686 31.2302 39.8686 32.5C39.8686 34.5814 38.9327 36.447 37.454 37.7085L37.8052 38.0554L47.6656 45.7436C53.0423 40.5549 59.1397 36.0907 65.8072 32.5C59.8373 29.285 54.3243 25.3696 49.3766 20.8609Z" fill="#FCE593"/>
<path d="M45.3679 48.051L37.5673 38.2904L37.1929 37.9206C36.0105 38.8347 34.5215 39.3796 32.9036 39.3796C31.3095 39.3796 29.8406 38.8506 28.6668 37.9608L28.333 38.2904L20.49 48.104C25.3207 53.1609 29.4998 58.8337 32.9036 65C36.3193 58.8121 40.5158 53.1212 45.3679 48.051Z" fill="#FCE593"/>
<path d="M25.9386 32.5C25.9386 34.6049 26.8956 36.489 28.4033 37.7509L28.095 38.0554L18.1832 45.7838C12.7964 40.5779 6.68465 36.1 0 32.5C5.98717 29.2757 11.5147 25.347 16.4735 20.8218L26.924 28.9702C26.2983 30.0022 25.9386 31.2096 25.9386 32.5Z" fill="#FCE593"/>
<path d="M130.755 56.5392H119.875L107.006 36.0281L104.257 34.0636L105.134 32.3303H108.41C111.062 32.3303 113.148 31.6755 114.669 30.3658C116.229 29.0177 117.009 27.1881 117.009 24.8769C117.009 21.834 116.151 19.311 114.435 17.3081C112.719 15.2666 110.223 14.2458 106.948 14.2458C104.764 14.2458 102.755 14.8814 100.923 16.1525V52.1481L107.065 54.2281L105.895 56.5392H88.1121V54.7481L93.6107 50.4725V15.3436L87.5272 13.3792L88.6971 11.0681H95.4826C99.0313 11.0681 102.521 10.9525 105.953 10.7214C108.449 10.5673 110.301 10.4903 111.51 10.4903C114.123 10.4903 116.443 11.0103 118.471 12.0503C120.538 13.0903 122.117 14.4962 123.209 16.2681C124.34 18.0399 124.906 19.9851 124.906 22.1036C124.906 24.0295 124.301 25.8784 123.092 27.6503C121.883 29.3836 120.285 30.9051 118.296 32.2147C116.346 33.4858 114.279 34.4488 112.095 35.1036L115.897 36.3747L124.964 50.8192L131.925 54.2281L130.755 56.5392Z" fill="#FCE593"/>
<path d="M169.514 56.4236H158.4V50.4147L150.971 56.5392C150.152 56.8473 149.079 57.0014 147.754 57.0014C145.102 57.0014 142.996 56.2118 141.436 54.6325C139.876 53.0147 139.096 50.8384 139.096 48.1036V34.2947L133.89 31.2903V29.4992L143.893 24.6458H146.116V45.2147C146.116 47.3332 146.447 48.8162 147.11 49.6636C147.773 50.511 148.962 50.9347 150.678 50.9347C151.887 50.9347 153.077 50.7229 154.247 50.2992C155.416 49.8369 156.801 48.951 158.4 47.6414V34.2947L153.194 31.2903V29.4992L163.196 24.6458H165.419V52.0903L170.684 54.1125L169.514 56.4236Z" fill="#FCE593"/>
<path d="M212.17 56.4814H201.056V37.0103C201.056 34.8918 200.724 33.4088 200.061 32.5614C199.398 31.714 198.209 31.2903 196.493 31.2903C195.206 31.2903 193.919 31.5214 192.632 31.9836C191.384 32.4458 189.902 33.3318 188.187 34.6414V52.1481L193.451 54.1703L192.281 56.4814H175.961V54.6903L181.167 50.6458V34.2947L175.961 31.2903V29.4992L185.964 24.6458L187.894 32.1569L196.2 25.6281C197.019 25.3199 198.092 25.1658 199.418 25.1658C202.069 25.1658 204.175 25.9747 205.735 27.5925C207.295 29.1718 208.075 31.3288 208.075 34.0636V52.0903L213.34 54.1703L212.17 56.4814Z" fill="#FCE593"/>
<path d="M237.951 56.5392C236.392 56.8473 234.52 57.0014 232.336 57.0014C229.762 57.0014 227.442 56.3466 225.375 55.0369C223.347 53.6888 221.748 51.8784 220.578 49.6058C219.447 47.3332 218.882 44.8295 218.882 42.0947C218.882 39.1288 219.798 36.3555 221.631 33.7747C223.464 31.1555 225.745 29.0755 228.475 27.5347C231.244 25.9555 233.915 25.1658 236.489 25.1658C240.194 25.1658 243.06 26.6103 245.088 29.4992C247.155 32.3881 248.188 36.2014 248.188 40.9392H226.545C226.779 44.2132 227.676 46.8903 229.236 48.9703C230.834 51.0503 232.999 52.0903 235.729 52.0903C238.263 52.0903 241.871 50.1451 246.55 46.2547L248.305 48.4503L237.951 56.5392ZM233.096 30.0192C228.885 30.0192 226.681 32.8695 226.486 38.5703H240.174C239.823 36.4903 239.453 34.911 239.063 33.8325C238.712 32.7155 238.068 31.8103 237.132 31.1169C236.236 30.3851 234.89 30.0192 233.096 30.0192Z" fill="#FCE593"/>
<path d="M276.709 25.2236C277.996 25.2236 279.127 25.5703 280.102 26.2636C281.077 26.9569 281.837 27.9199 282.383 29.1525L278.522 33.9481H276.3C276.144 32.9851 275.851 32.311 275.422 31.9258C275.032 31.5021 274.486 31.2903 273.784 31.2903C272.926 31.2903 272.01 31.5214 271.035 31.9836C270.099 32.4073 269.027 33.2355 267.818 34.4681V51.6858L276.007 54.1703L274.837 56.4814H255.592V54.6903L260.798 50.6458V34.2947L255.592 31.2903V29.4992L265.595 24.6458L267.408 31.7525L273.492 25.6281C274.311 25.3199 275.383 25.1658 276.709 25.1658V25.2236Z" fill="#FCE593"/>
<path d="M315.83 56.4236H304.716V51.3969L298.106 56.5392C297.326 56.8473 296.351 57.0014 295.181 57.0014C291.828 57.0014 289.39 56.1732 287.869 54.5169C286.387 52.8606 285.647 50.8769 285.647 48.5658C285.647 47.1792 286.153 45.8118 287.167 44.4636C288.181 43.1155 289.624 41.8444 291.496 40.6503H304.716V36.9525C304.716 34.4488 304.034 32.6769 302.669 31.6369C301.343 30.5969 299.51 30.0769 297.17 30.0769C294.752 30.0769 291.789 31.5214 288.279 34.4103L286.524 32.2147L294.947 25.6281C296.507 25.3199 298.379 25.1658 300.563 25.1658C304.112 25.1658 306.861 26.0325 308.811 27.7658C310.761 29.4606 311.735 31.9451 311.735 35.2192V52.0903L317 54.1125L315.83 56.4236ZM297.053 52.0903C299.432 52.0903 301.986 51.0118 304.716 48.8547V43.0192H294.362C293.855 43.6355 293.485 44.2518 293.251 44.8681C293.056 45.4844 292.958 46.1584 292.958 46.8903C292.958 48.3155 293.329 49.5481 294.07 50.5881C294.811 51.5895 295.805 52.0903 297.053 52.0903Z" fill="#FCE593"/>
</svg>
