<svg width="117" height="24" viewBox="0 0 117 24" fill="none" xmlns="http://www.w3.org/2000/svg">
<path d="M22.0404 23.7615H16.493L9.93161 13.1776L8.52985 12.164L8.97722 11.2696H10.6474C11.9995 11.2696 13.0632 10.9317 13.8386 10.2559C14.634 9.56025 15.0316 8.61615 15.0316 7.4236C15.0316 5.85342 14.5942 4.55155 13.7193 3.51801C12.8445 2.4646 11.572 1.93789 9.90178 1.93789C8.78833 1.93789 7.76435 2.26584 6.82984 2.92174V21.4957L9.96143 22.5689L9.36494 23.7615H0.298247V22.8373L3.10176 20.6311V2.50435L0 1.49068L0.596493 0.298136H4.05615C5.86551 0.298136 7.64505 0.238509 9.39477 0.119255C10.6673 0.0397516 11.6117 0 12.2281 0C13.5603 0 14.7433 0.268323 15.7772 0.804969C16.831 1.34161 17.6363 2.06708 18.193 2.98137C18.7696 3.89565 19.058 4.89938 19.058 5.99255C19.058 6.98634 18.7498 7.94037 18.1334 8.85466C17.517 9.74907 16.7018 10.5342 15.6878 11.2099C14.6936 11.8658 13.6398 12.3627 12.5264 12.7006L14.465 13.3565L19.0878 20.8099L22.6369 22.5689L22.0404 23.7615Z" fill="#111111"/>
<path d="M41.802 23.7019H36.1354V20.6012L32.3476 23.7615C31.9301 23.9205 31.3833 24 30.7073 24C29.3552 24 28.2815 23.5925 27.4862 22.7776C26.6909 21.9429 26.2932 20.8199 26.2932 19.4087V12.2832L23.6388 10.7329V9.8087L28.7388 7.30435H29.8722V17.918C29.8722 19.0112 30.0412 19.7764 30.3792 20.2137C30.7172 20.6509 31.3237 20.8696 32.1985 20.8696C32.8149 20.8696 33.4213 20.7602 34.0178 20.5416C34.6143 20.3031 35.3202 19.846 36.1354 19.1702V12.2832L33.481 10.7329V9.8087L38.581 7.30435H39.7143V21.4658L42.3985 22.5093L41.802 23.7019Z" fill="#111111"/>
<path d="M63.5507 23.7317H57.8841V13.6845C57.8841 12.5913 57.715 11.8261 57.377 11.3888C57.039 10.9516 56.4326 10.7329 55.5577 10.7329C54.9016 10.7329 54.2454 10.8522 53.5893 11.0907C52.953 11.3292 52.1975 11.7863 51.3226 12.4621V21.4957L54.0068 22.5391L53.4104 23.7317H45.0893V22.8075L47.7437 20.7205V12.2832L45.0893 10.7329V9.8087L50.1893 7.30435L51.1735 11.1801L55.4086 7.81118C55.8262 7.65217 56.3729 7.57267 57.049 7.57267C58.401 7.57267 59.4747 7.99006 60.27 8.82484C61.0653 9.63975 61.463 10.7528 61.463 12.164V21.4658L64.1472 22.5391L63.5507 23.7317Z" fill="#111111"/>
<path d="M76.6959 23.7615C75.9006 23.9205 74.9462 24 73.8328 24C72.5205 24 71.3375 23.6621 70.2837 22.9863C69.2497 22.2907 68.4345 21.3565 67.838 20.1839C67.2614 19.0112 66.9731 17.7193 66.9731 16.3081C66.9731 14.7776 67.4404 13.3466 68.3749 12.0149C69.3094 10.6634 70.4725 9.59006 71.8644 8.79503C73.2761 7.98012 74.638 7.57267 75.9503 7.57267C77.8392 7.57267 79.3006 8.31801 80.3346 9.8087C81.3884 11.2994 81.9153 13.2671 81.9153 15.7118H70.8801C70.9994 17.4012 71.4568 18.7826 72.2521 19.8559C73.0673 20.9292 74.1708 21.4658 75.5626 21.4658C76.855 21.4658 78.6942 20.4621 81.0802 18.4547L81.9749 19.5876L76.6959 23.7615ZM74.2205 10.077C72.0731 10.077 70.9497 11.5478 70.8503 14.4894H77.8293C77.6503 13.4161 77.4614 12.6012 77.2626 12.0447C77.0837 11.4683 76.7556 11.0012 76.2784 10.6435C75.8211 10.2658 75.1351 10.077 74.2205 10.077Z" fill="#111111"/>
<path d="M96.4571 7.60248C97.1133 7.60248 97.6899 7.78137 98.1869 8.13913C98.684 8.4969 99.0717 8.99379 99.3501 9.62981L97.3817 12.1043H96.2483C96.1688 11.6075 96.0197 11.2596 95.801 11.0609C95.6021 10.8422 95.3238 10.7329 94.9659 10.7329C94.5284 10.7329 94.0612 10.8522 93.5641 11.0907C93.0869 11.3093 92.5401 11.7366 91.9238 12.3727V21.2571L96.0992 22.5391L95.5027 23.7317H85.6904V22.8075L88.3448 20.7205V12.2832L85.6904 10.7329V9.8087L90.7904 7.30435L91.715 10.9714L94.8168 7.81118C95.2343 7.65217 95.7811 7.57267 96.4571 7.57267V7.60248Z" fill="#111111"/>
<path d="M116.404 23.7019H110.737V21.1081L107.367 23.7615C106.969 23.9205 106.472 24 105.875 24C104.165 24 102.923 23.5727 102.147 22.718C101.392 21.8634 101.014 20.8398 101.014 19.6472C101.014 18.9317 101.272 18.2261 101.789 17.5304C102.306 16.8348 103.042 16.1789 103.996 15.5627H110.737V13.6547C110.737 12.3627 110.389 11.4484 109.693 10.9118C109.017 10.3752 108.082 10.1068 106.889 10.1068C105.657 10.1068 104.146 10.8522 102.356 12.3429L101.461 11.2099L105.756 7.81118C106.551 7.65217 107.506 7.57267 108.619 7.57267C110.429 7.57267 111.83 8.01988 112.825 8.91429C113.819 9.78882 114.316 11.0708 114.316 12.7602V21.4658L117 22.5093L116.404 23.7019ZM106.83 21.4658C108.043 21.4658 109.345 20.9093 110.737 19.7963V16.7851H105.458C105.199 17.1031 105.01 17.4211 104.891 17.7391C104.792 18.0571 104.742 18.405 104.742 18.7826C104.742 19.518 104.931 20.154 105.309 20.6907C105.687 21.2075 106.194 21.4658 106.83 21.4658Z" fill="#111111"/>
</svg>
