<svg width="24" height="24" viewBox="0 0 24 24" fill="none" xmlns="http://www.w3.org/2000/svg">
<g clip-path="url(#clip0_2203_644)">
<path d="M20.5733 13.9597C21.0121 14.0129 21.4346 14.1583 21.8133 14.3864H21.8466C22.241 12.5254 22.1 10.5906 21.4399 8.80641C21.4152 8.71762 21.3724 8.63491 21.3141 8.5635C21.2558 8.4921 21.1834 8.43356 21.1014 8.39157C21.0193 8.34958 20.9295 8.32506 20.8375 8.31955C20.7455 8.31404 20.6533 8.32767 20.5669 8.35958C20.4804 8.39148 20.4015 8.44097 20.3351 8.50491C20.2687 8.56886 20.2163 8.64587 20.1812 8.73108C20.1461 8.8163 20.1291 8.90787 20.1311 9.00001C20.1332 9.09215 20.1544 9.18286 20.1933 9.26641C20.7439 10.7673 20.8753 12.3898 20.5733 13.9597ZM17.5533 19.0531C16.3916 20.0222 14.9964 20.6703 13.5066 20.9331C13.419 20.9405 13.3338 20.9651 13.2558 21.0055C13.1777 21.0459 13.1084 21.1012 13.0518 21.1684C12.9951 21.2356 12.9523 21.3132 12.9257 21.397C12.899 21.4807 12.8891 21.5689 12.8966 21.6564C12.904 21.744 12.9286 21.8292 12.969 21.9072C13.0094 21.9853 13.0648 22.0546 13.1319 22.1112C13.1991 22.1679 13.2768 22.2107 13.3605 22.2373C13.4442 22.264 13.5324 22.2739 13.6199 22.2664H13.7399C15.5157 21.9532 17.1753 21.1706 18.5466 19.9997V19.9531C18.1544 19.7282 17.8156 19.4212 17.5533 19.0531ZM10.4133 20.8931C9.40501 20.7035 8.43732 20.3403 7.55326 19.8197C7.17519 19.5972 6.81219 19.35 6.46659 19.0797C6.21224 19.453 5.88022 19.7668 5.49326 19.9997C5.92633 20.3647 6.38779 20.6947 6.87326 20.9864C7.89149 21.5862 9.00563 22.0057 10.1666 22.2264H10.2933C10.4701 22.2423 10.646 22.1873 10.7822 22.0736C10.9185 21.9598 11.004 21.7966 11.0199 21.6197C11.0358 21.4429 10.9809 21.267 10.8671 21.1308C10.7533 20.9945 10.5901 20.909 10.4133 20.8931ZM3.03992 14.0997C3.17326 14.0997 3.30659 14.0797 3.43992 14.0397C3.12212 12.4678 3.24675 10.8384 3.79992 9.33308C3.86092 9.16688 3.8534 8.98325 3.77901 8.82259C3.70462 8.66194 3.56946 8.53741 3.40326 8.47641C3.23705 8.41541 3.05343 8.42293 2.89277 8.49732C2.73212 8.57171 2.60759 8.70688 2.54659 8.87308C1.88625 10.6719 1.75667 12.6227 2.17326 14.4931C2.44092 14.3195 2.73304 14.1869 3.03992 14.0997Z" fill="#AFAFAF"/>
<path d="M21.2665 15.3333C21.0284 15.1818 20.7626 15.0791 20.4845 15.031C20.2065 14.9829 19.9216 14.9905 19.6465 15.0533C19.298 15.1454 18.9775 15.3217 18.7131 15.5667L16.1331 14.0733C16.5395 13.0694 16.5769 11.9541 16.2389 10.9252C15.9008 9.89631 15.2091 9.02053 14.2865 8.45332L14.2131 8.40665C13.7149 8.12495 13.1672 7.94163 12.5998 7.86665V5.33332C13.1307 5.17375 13.5797 4.81556 13.8531 4.33332C14.1477 3.83476 14.2337 3.24019 14.0927 2.67858C13.9517 2.11697 13.5949 1.6336 13.0998 1.33332C12.8586 1.19221 12.5917 1.10065 12.3147 1.06402C12.0376 1.02739 11.7561 1.04642 11.4865 1.11999C11.2085 1.19084 10.9475 1.31635 10.7185 1.48919C10.4896 1.66203 10.2974 1.87873 10.1531 2.12665C9.86695 2.6228 9.78553 3.21101 9.92621 3.76625C10.0669 4.32149 10.4186 4.79997 10.9065 5.09999C11.0595 5.19994 11.2255 5.27845 11.3998 5.33332V7.86665C10.7283 7.95832 10.0868 8.2032 9.52496 8.58236C8.96315 8.96152 8.49606 9.46482 8.15982 10.0533C7.8119 10.6548 7.60583 11.3278 7.55731 12.0209C7.50879 12.7141 7.61909 13.4092 7.87982 14.0533L5.21315 15.58C5.11928 15.4906 5.01901 15.4081 4.91315 15.3333C4.66903 15.1944 4.39989 15.1051 4.12117 15.0705C3.84244 15.0359 3.55963 15.0566 3.28895 15.1316C3.01827 15.2065 2.76506 15.3342 2.54383 15.5072C2.32261 15.6803 2.13774 15.8953 1.99982 16.14C1.71183 16.6337 1.62733 17.2202 1.76421 17.7752C1.90109 18.3302 2.2486 18.8101 2.73315 19.1133C3.06514 19.3136 3.44543 19.4196 3.83315 19.42C4.00866 19.4207 4.18349 19.3983 4.35315 19.3533C4.90741 19.2103 5.38257 18.8539 5.67486 18.3617C5.96715 17.8696 6.05282 17.2818 5.91315 16.7267V16.6133L8.49982 15.12C8.84651 15.5739 9.27359 15.9603 9.75982 16.26C10.6918 16.8477 11.813 17.0576 12.8945 16.847C13.976 16.6364 14.9364 16.0211 15.5798 15.1267L18.1331 16.6C18.0128 17.0547 18.0418 17.536 18.2158 17.9729C18.3899 18.4099 18.6998 18.7793 19.0998 19.0267C19.5844 19.311 20.1619 19.3913 20.7057 19.2501C21.2494 19.1088 21.7149 18.7575 21.9998 18.2733C22.2776 17.7826 22.3564 17.204 22.22 16.6569C22.0835 16.1099 21.7422 15.636 21.2665 15.3333ZM5.36648 6.66665C6.32158 5.53841 7.54937 4.67322 8.93315 4.15332C8.79919 3.70632 8.76058 3.23618 8.81982 2.77332C7.08629 3.3529 5.54254 4.39205 4.35315 5.77999C4.23557 5.91436 4.17619 6.08994 4.18807 6.2681C4.19994 6.44626 4.28211 6.61241 4.41648 6.72999C4.55086 6.84757 4.72644 6.90695 4.9046 6.89507C5.08276 6.88319 5.2489 6.80103 5.36648 6.66665Z" fill="#AFAFAF"/>
<path d="M16.4469 4.82027C17.2676 5.31258 18.0019 5.93646 18.6202 6.66694C18.6771 6.73348 18.7466 6.78815 18.8246 6.82785C18.9027 6.86754 18.9878 6.89148 19.075 6.89829C19.1623 6.9051 19.2501 6.89465 19.3333 6.86754C19.4166 6.84042 19.4937 6.79718 19.5602 6.74027C19.6268 6.68337 19.6814 6.61391 19.7211 6.53588C19.7608 6.45784 19.7848 6.37275 19.7916 6.28546C19.7984 6.19817 19.7879 6.1104 19.7608 6.02715C19.7337 5.9439 19.6905 5.86681 19.6336 5.80027C18.9216 4.95558 18.0746 4.23471 17.1269 3.66694C16.5051 3.30609 15.8484 3.00902 15.1669 2.78027C15.2336 3.23988 15.1995 3.70851 15.0669 4.15361C15.5444 4.33762 16.0059 4.5606 16.4469 4.82027Z" fill="#AFAFAF"/>
</g>
<defs>
<clipPath id="clip0_2203_644">
<rect width="24" height="24" fill="white"/>
</clipPath>
</defs>
</svg>
