<svg width="36" height="36" viewBox="0 0 36 36" fill="none" xmlns="http://www.w3.org/2000/svg">
<path d="M10.5 16.5C10.5 13.671 10.5 12.258 11.379 11.379C12.258 10.5 13.671 10.5 16.5 10.5H19.5C22.329 10.5 23.742 10.5 24.621 11.379C25.5 12.258 25.5 13.671 25.5 16.5V19.5C25.5 22.329 25.5 23.742 24.621 24.621C23.742 25.5 22.329 25.5 19.5 25.5H16.5C13.671 25.5 12.258 25.5 11.379 24.621C10.5 23.742 10.5 22.329 10.5 19.5V16.5Z" stroke="#FCE593" stroke-width="2"/>
<path d="M19.5 15H16.5C15.6716 15 15 15.6716 15 16.5V19.5C15 20.3284 15.6716 21 16.5 21H19.5C20.3284 21 21 20.3284 21 19.5V16.5C21 15.6716 20.3284 15 19.5 15Z" fill="#FCE593"/>
<path d="M15 10.5V6M21 10.5V6M25.5 15H30M25.5 21H30M15 30V25.5M21 30V25.5M6 15H10.5M6 21H10.5" stroke="#FCE593" stroke-width="2" stroke-linecap="round"/>
</svg>
