<svg width="24" height="24" viewBox="0 0 24 24" fill="none" xmlns="http://www.w3.org/2000/svg">
<path d="M15.5 6.99969V16.4997M8.5 16.9997V8.49969M3.521 6.71569L8.074 4.23269C8.20671 4.16022 8.35414 4.11878 8.50517 4.11151C8.65621 4.10423 8.80693 4.13131 8.946 4.19069L15.054 6.80869C15.1931 6.86808 15.3438 6.89515 15.4948 6.88787C15.6459 6.8806 15.7933 6.83917 15.926 6.76669L19.521 4.80669C19.6733 4.72358 19.8446 4.68153 20.0181 4.68467C20.1916 4.68781 20.3613 4.73604 20.5105 4.82461C20.6597 4.91318 20.7833 5.03905 20.8691 5.18985C20.9549 5.34065 21 5.51118 21 5.68469V16.4057C21 16.5853 20.9517 16.7617 20.86 16.9162C20.7683 17.0707 20.6367 17.1976 20.479 17.2837L15.926 19.7667C15.7933 19.8392 15.6459 19.8806 15.4948 19.8879C15.3438 19.8951 15.1931 19.8681 15.054 19.8087L8.946 17.1897C8.80693 17.1303 8.65621 17.1032 8.50517 17.1105C8.35414 17.1178 8.20671 17.1592 8.074 17.2317L4.479 19.1917C4.32676 19.2748 4.15554 19.3168 3.98214 19.3137C3.80874 19.3106 3.63913 19.2625 3.48996 19.174C3.34079 19.0856 3.21718 18.9598 3.13128 18.8092C3.04538 18.6585 3.00014 18.4881 3 18.3147V7.59469C2.99997 7.41504 3.04833 7.23869 3.14001 7.08419C3.23169 6.92969 3.3633 6.80175 3.521 6.71569Z" stroke="#AFAFAF" stroke-width="2" stroke-linecap="round" stroke-linejoin="round"/>
</svg>
