<svg width="24" height="24" viewBox="0 0 24 24" fill="none" xmlns="http://www.w3.org/2000/svg">
<path fill-rule="evenodd" clip-rule="evenodd" d="M9.163 3.77534C9.22255 3.96497 9.2044 4.17049 9.11252 4.34674C9.02064 4.523 8.86256 4.65557 8.673 4.71534C6.95513 5.25618 5.45452 6.33081 4.38932 7.78303C3.32412 9.23524 2.74985 10.9893 2.75 12.7903C2.74987 13.9014 2.9686 15.0016 3.39369 16.0282C3.81879 17.0547 4.44193 17.9874 5.22752 18.7731C6.01312 19.5588 6.94579 20.1821 7.97227 20.6073C8.99875 21.0325 10.0989 21.2513 11.21 21.2513C13.0109 21.2516 14.7649 20.6774 16.2171 19.6124C17.6693 18.5474 18.744 17.047 19.285 15.3293C19.3119 15.2324 19.3581 15.1418 19.4208 15.0631C19.4834 14.9843 19.5613 14.919 19.6497 14.8709C19.7382 14.8229 19.8354 14.7932 19.9355 14.7835C20.0357 14.7738 20.1368 14.7844 20.2328 14.8146C20.3288 14.8448 20.4177 14.894 20.4943 14.9593C20.5709 15.0246 20.6335 15.1047 20.6785 15.1947C20.7235 15.2847 20.7499 15.3829 20.7562 15.4833C20.7625 15.5838 20.7485 15.6844 20.715 15.7793C19.447 19.8193 15.672 22.7513 11.211 22.7513C5.71 22.7513 1.25 18.2913 1.25 12.7913C1.25 8.32934 4.182 4.55534 8.223 3.28534C8.41276 3.22583 8.61839 3.24413 8.79467 3.3362C8.97095 3.42828 9.10343 3.5856 9.163 3.77534Z" fill="#969696"/>
<path d="M21.913 9.94697C21.3867 8.07286 20.3873 6.36558 19.0109 4.98912C17.6344 3.61266 15.9271 2.61327 14.053 2.08697C12.409 1.62797 11 3.05397 11 4.75997V11.454C11 12.307 11.692 12.999 12.545 12.999H19.239C20.946 12.999 22.372 11.59 21.913 9.94697Z" fill="#969696"/>
</svg>
