<svg width="36" height="36" viewBox="0 0 36 36" fill="none" xmlns="http://www.w3.org/2000/svg">
<path fill-rule="evenodd" clip-rule="evenodd" d="M13.5 7.875C13.5 6.97989 13.8556 6.12145 14.4885 5.48851C15.1214 4.85558 15.9799 4.5 16.875 4.5H19.125C20.0201 4.5 20.8786 4.85558 21.5115 5.48851C22.1444 6.12145 22.5 6.97989 22.5 7.875V10.125C22.5 11.0201 22.1444 11.8786 21.5115 12.5115C20.8786 13.1444 20.0201 13.5 19.125 13.5V15.75H24.75C25.0484 15.75 25.3345 15.8685 25.5455 16.0795C25.7565 16.2905 25.875 16.5766 25.875 16.875V19.125C25.875 19.4234 25.7565 19.7095 25.5455 19.9205C25.3345 20.1315 25.0484 20.25 24.75 20.25C24.4516 20.25 24.1655 20.1315 23.9545 19.9205C23.7435 19.7095 23.625 19.4234 23.625 19.125V18H12.375V19.125C12.375 19.4234 12.2565 19.7095 12.0455 19.9205C11.8345 20.1315 11.5484 20.25 11.25 20.25C10.9516 20.25 10.6655 20.1315 10.4545 19.9205C10.2435 19.7095 10.125 19.4234 10.125 19.125V16.875C10.125 16.5766 10.2435 16.2905 10.4545 16.0795C10.6655 15.8685 10.9516 15.75 11.25 15.75H16.875V13.5C15.9799 13.5 15.1214 13.1444 14.4885 12.5115C13.8556 11.8786 13.5 11.0201 13.5 10.125V7.875ZM19.125 11.25C19.4234 11.25 19.7095 11.1315 19.9205 10.9205C20.1315 10.7095 20.25 10.4234 20.25 10.125V7.875C20.25 7.57663 20.1315 7.29048 19.9205 7.07951C19.7095 6.86853 19.4234 6.75 19.125 6.75H16.875C16.5766 6.75 16.2905 6.86853 16.0795 7.07951C15.8685 7.29048 15.75 7.57663 15.75 7.875V10.125C15.75 10.4234 15.8685 10.7095 16.0795 10.9205C16.2905 11.1315 16.5766 11.25 16.875 11.25H19.125ZM6.75 25.875C6.75 24.9799 7.10558 24.1214 7.73851 23.4885C8.37145 22.8556 9.22989 22.5 10.125 22.5H12.375C13.2701 22.5 14.1286 22.8556 14.7615 23.4885C15.3944 24.1214 15.75 24.9799 15.75 25.875V28.125C15.75 29.0201 15.3944 29.8786 14.7615 30.5115C14.1286 31.1444 13.2701 31.5 12.375 31.5H10.125C9.22989 31.5 8.37145 31.1444 7.73851 30.5115C7.10558 29.8786 6.75 29.0201 6.75 28.125V25.875ZM10.125 24.75C9.82663 24.75 9.54048 24.8685 9.32951 25.0795C9.11853 25.2905 9 25.5766 9 25.875V28.125C9 28.4234 9.11853 28.7095 9.32951 28.9205C9.54048 29.1315 9.82663 29.25 10.125 29.25H12.375C12.6734 29.25 12.9595 29.1315 13.1705 28.9205C13.3815 28.7095 13.5 28.4234 13.5 28.125V25.875C13.5 25.5766 13.3815 25.2905 13.1705 25.0795C12.9595 24.8685 12.6734 24.75 12.375 24.75H10.125ZM20.25 25.875C20.25 24.9799 20.6056 24.1214 21.2385 23.4885C21.8714 22.8556 22.7299 22.5 23.625 22.5H25.875C26.7701 22.5 27.6286 22.8556 28.2615 23.4885C28.8944 24.1214 29.25 24.9799 29.25 25.875V28.125C29.25 29.0201 28.8944 29.8786 28.2615 30.5115C27.6286 31.1444 26.7701 31.5 25.875 31.5H23.625C22.7299 31.5 21.8714 31.1444 21.2385 30.5115C20.6056 29.8786 20.25 29.0201 20.25 28.125V25.875ZM23.625 24.75C23.3266 24.75 23.0405 24.8685 22.8295 25.0795C22.6185 25.2905 22.5 25.5766 22.5 25.875V28.125C22.5 28.4234 22.6185 28.7095 22.8295 28.9205C23.0405 29.1315 23.3266 29.25 23.625 29.25H25.875C26.1734 29.25 26.4595 29.1315 26.6705 28.9205C26.8815 28.7095 27 28.4234 27 28.125V25.875C27 25.5766 26.8815 25.2905 26.6705 25.0795C26.4595 24.8685 26.1734 24.75 25.875 24.75H23.625Z" fill="#FCE593"/>
</svg>
